G04*
G04 #@! TF.GenerationSoftware,Altium Limited,Altium Designer,23.2.1 (34)*
G04*
G04 Layer_Physical_Order=1*
G04 Layer_Color=255*
%FSLAX25Y25*%
%MOIN*%
G70*
G04*
G04 #@! TF.SameCoordinates,48004CD8-6F64-47D5-A7CF-E845CD00F4B9*
G04*
G04*
G04 #@! TF.FilePolarity,Positive*
G04*
G01*
G75*
%ADD10C,0.08000*%
%ADD11C,0.02000*%
%ADD12C,0.01000*%
%ADD13C,0.11811*%
%ADD14C,0.05906*%
%ADD15R,0.05906X0.05906*%
%ADD16C,0.04724*%
%ADD17C,0.05315*%
%ADD18R,0.05906X0.05906*%
%ADD19C,0.27559*%
%ADD20R,0.05315X0.05315*%
%ADD21C,0.07874*%
%ADD22C,0.06299*%
%ADD23R,0.06299X0.06299*%
%ADD24R,0.06299X0.06299*%
%ADD25R,0.05709X0.05709*%
%ADD26C,0.05709*%
%ADD27R,0.05709X0.05709*%
%ADD28R,0.05315X0.05315*%
%ADD29R,0.11811X0.11811*%
%ADD30R,0.04724X0.04724*%
%ADD31C,0.08000*%
G36*
X810000Y557000D02*
Y10000D01*
X13000Y10000D01*
Y10000D01*
X10000D01*
Y560000D01*
X810000D01*
Y557000D01*
D02*
G37*
%LPC*%
G36*
X807000D02*
X13000D01*
Y13000D01*
X807000D01*
Y557000D01*
D02*
G37*
%LPD*%
G36*
X422000Y544000D02*
Y527000D01*
X426000Y523000D01*
X473000D01*
X481000Y515000D01*
Y493000D01*
X473000Y485000D01*
X410000D01*
X404000Y491000D01*
Y522000D01*
X399000Y527000D01*
Y545000D01*
X403000Y549000D01*
X417000D01*
X422000Y544000D01*
D02*
G37*
G36*
X753000Y505000D02*
X794000D01*
Y504000D01*
X801000Y497000D01*
Y456000D01*
X795000Y450000D01*
X763000D01*
X745000Y468000D01*
X692000D01*
X681000Y479000D01*
X619000D01*
X607000Y491000D01*
Y521000D01*
X622000Y536000D01*
X722000D01*
X753000Y505000D01*
D02*
G37*
G36*
X318000Y542000D02*
Y531000D01*
X336000Y513000D01*
X364000D01*
X378000Y499000D01*
Y484000D01*
X386000Y476000D01*
X419000D01*
X429000Y466000D01*
Y452000D01*
X425000Y448000D01*
X344000D01*
X257000Y535000D01*
X233000D01*
X226000Y528000D01*
X226000Y520000D01*
X221000Y515000D01*
X204000D01*
X198000Y521000D01*
Y547000D01*
X205000Y554000D01*
X306000Y554000D01*
X318000Y542000D01*
D02*
G37*
G36*
X517000Y545000D02*
Y491000D01*
X557000Y451000D01*
X563407D01*
X563541Y450500D01*
X562827Y450087D01*
X565700Y447214D01*
X568573Y450087D01*
X567859Y450500D01*
X567993Y451000D01*
X571000D01*
X573000Y449000D01*
X573000Y443000D01*
X571000Y441000D01*
X568685D01*
X568551Y441500D01*
X568573Y441513D01*
X565700Y444386D01*
X562827Y441513D01*
X562849Y441500D01*
X562715Y441000D01*
X560000D01*
X557000Y438000D01*
X478000D01*
X464000Y452000D01*
Y469000D01*
X490000Y495000D01*
Y542000D01*
X497000Y549000D01*
X513000D01*
X517000Y545000D01*
D02*
G37*
G36*
X261000Y519000D02*
Y476000D01*
X265000Y472000D01*
X285000D01*
X291000Y466000D01*
Y444000D01*
X288000Y441000D01*
X284550D01*
Y441050D01*
X282298D01*
X282164Y441550D01*
X282273Y441613D01*
X279400Y444486D01*
X276527Y441613D01*
X276636Y441550D01*
X276502Y441050D01*
X274250D01*
Y441000D01*
X240000Y441000D01*
X209000Y472000D01*
X175000Y472000D01*
X148000D01*
X142000Y478000D01*
Y500000D01*
X153000Y511000D01*
X222000D01*
X229000Y518000D01*
Y528000D01*
X233000Y532000D01*
X248000D01*
X261000Y519000D01*
D02*
G37*
G36*
X549000Y531000D02*
Y520000D01*
X622000Y447000D01*
X636000D01*
X644000Y439000D01*
Y414000D01*
X638000Y408000D01*
X604000D01*
X583000Y429000D01*
Y445000D01*
X575000Y453000D01*
X570530D01*
X570280Y453433D01*
X570499Y453812D01*
X570850Y455122D01*
Y456478D01*
X570499Y457788D01*
X569987Y458673D01*
X566407Y455093D01*
X565700Y455800D01*
X564993Y455093D01*
X561413Y458673D01*
X560901Y457788D01*
X560550Y456478D01*
Y455614D01*
X560533Y455583D01*
X560050Y455343D01*
X560000Y455382D01*
Y456000D01*
X522000Y494000D01*
Y529000D01*
X529000Y536000D01*
X544000D01*
X549000Y531000D01*
D02*
G37*
G36*
X459000Y460000D02*
Y415000D01*
X452000Y408000D01*
X434000D01*
X425000Y417000D01*
Y441000D01*
X435000Y451000D01*
Y461000D01*
X441000Y467000D01*
X452000D01*
X459000Y460000D01*
D02*
G37*
G36*
X190000Y439000D02*
Y397000D01*
X185000Y392000D01*
X21000D01*
X17000Y396000D01*
Y438000D01*
X22000Y443000D01*
X186000D01*
X190000Y439000D01*
D02*
G37*
G36*
X759000Y444000D02*
X793000D01*
X803000Y434000D01*
Y395000D01*
X797000Y389000D01*
X778000D01*
X770000Y381000D01*
X688000D01*
X678000Y391000D01*
Y444000D01*
X695000Y461000D01*
X742000D01*
X759000Y444000D01*
D02*
G37*
%LPC*%
G36*
X411979Y545606D02*
X410421D01*
X408894Y545302D01*
X407455Y544706D01*
X406348Y543966D01*
X411200Y539114D01*
X416052Y543966D01*
X414945Y544706D01*
X413506Y545302D01*
X411979Y545606D01*
D02*
G37*
G36*
X417466Y542552D02*
X412614Y537700D01*
X417466Y532848D01*
X418206Y533955D01*
X418802Y535394D01*
X419105Y536921D01*
Y538479D01*
X418802Y540006D01*
X418206Y541445D01*
X417466Y542552D01*
D02*
G37*
G36*
X404934Y542552D02*
X404194Y541445D01*
X403598Y540006D01*
X403295Y538479D01*
Y536921D01*
X403598Y535394D01*
X404194Y533955D01*
X404934Y532848D01*
X409786Y537700D01*
X404934Y542552D01*
D02*
G37*
G36*
X411200Y536286D02*
X406348Y531434D01*
X407455Y530694D01*
X408894Y530098D01*
X410421Y529795D01*
X411979D01*
X413506Y530098D01*
X414945Y530694D01*
X416052Y531434D01*
X411200Y536286D01*
D02*
G37*
G36*
X475443Y506911D02*
X468957D01*
X472200Y503668D01*
X475443Y506911D01*
D02*
G37*
G36*
X419413Y506811D02*
X418187D01*
X417002Y506494D01*
X416287Y506081D01*
X418800Y503568D01*
X421313Y506081D01*
X420598Y506494D01*
X419413Y506811D01*
D02*
G37*
G36*
X445813Y506411D02*
X444587D01*
X443402Y506094D01*
X442687Y505681D01*
X445200Y503168D01*
X447713Y505681D01*
X446998Y506094D01*
X445813Y506411D01*
D02*
G37*
G36*
X414873Y504666D02*
X414460Y503951D01*
X414143Y502767D01*
Y501540D01*
X414460Y500356D01*
X414873Y499641D01*
X417386Y502153D01*
X414873Y504666D01*
D02*
G37*
G36*
X422727Y504667D02*
X420214Y502153D01*
X422727Y499641D01*
X423140Y500356D01*
X423457Y501540D01*
Y502767D01*
X423140Y503951D01*
X422727Y504667D01*
D02*
G37*
G36*
X441273Y504266D02*
X440860Y503551D01*
X440543Y502367D01*
Y501140D01*
X440860Y499956D01*
X441273Y499241D01*
X443786Y501754D01*
X441273Y504266D01*
D02*
G37*
G36*
X449127Y504267D02*
X446614Y501754D01*
X449127Y499241D01*
X449540Y499956D01*
X449858Y501140D01*
Y502367D01*
X449540Y503551D01*
X449127Y504267D01*
D02*
G37*
G36*
X476858Y505497D02*
X473614Y502253D01*
X476858Y499010D01*
Y505497D01*
D02*
G37*
G36*
X467543Y505497D02*
Y499010D01*
X470786Y502253D01*
X467543Y505497D01*
D02*
G37*
G36*
X472200Y500839D02*
X468957Y497596D01*
X475443D01*
X472200Y500839D01*
D02*
G37*
G36*
X418800Y500739D02*
X416287Y498226D01*
X417002Y497814D01*
X418187Y497496D01*
X419413D01*
X420598Y497814D01*
X421313Y498226D01*
X418800Y500739D01*
D02*
G37*
G36*
X445200Y500339D02*
X442687Y497826D01*
X443402Y497413D01*
X444587Y497096D01*
X445813D01*
X446998Y497413D01*
X447713Y497826D01*
X445200Y500339D01*
D02*
G37*
G36*
X626979Y517605D02*
X625421D01*
X623894Y517302D01*
X622455Y516706D01*
X621348Y515966D01*
X626200Y511114D01*
X631052Y515966D01*
X629945Y516706D01*
X628506Y517302D01*
X626979Y517605D01*
D02*
G37*
G36*
X696685Y515228D02*
X695515D01*
X694368Y515000D01*
X693288Y514553D01*
X692667Y514138D01*
X696100Y510706D01*
X699533Y514138D01*
X698912Y514553D01*
X697832Y515000D01*
X696685Y515228D01*
D02*
G37*
G36*
X691253Y512724D02*
X690839Y512104D01*
X690391Y511023D01*
X690163Y509876D01*
Y508707D01*
X690391Y507560D01*
X690839Y506479D01*
X691253Y505859D01*
X694686Y509291D01*
X691253Y512724D01*
D02*
G37*
G36*
X700947Y512724D02*
X697514Y509291D01*
X700947Y505859D01*
X701361Y506479D01*
X701809Y507560D01*
X702037Y508707D01*
Y509876D01*
X701809Y511023D01*
X701361Y512104D01*
X700947Y512724D01*
D02*
G37*
G36*
X632466Y514552D02*
X627614Y509700D01*
X632466Y504848D01*
X633206Y505955D01*
X633802Y507394D01*
X634105Y508921D01*
Y510479D01*
X633802Y512006D01*
X633206Y513445D01*
X632466Y514552D01*
D02*
G37*
G36*
X619934D02*
X619194Y513445D01*
X618598Y512006D01*
X618294Y510479D01*
Y508921D01*
X618598Y507394D01*
X619194Y505955D01*
X619934Y504848D01*
X624786Y509700D01*
X619934Y514552D01*
D02*
G37*
G36*
X696100Y507877D02*
X692667Y504445D01*
X693288Y504030D01*
X694368Y503582D01*
X695515Y503354D01*
X696685D01*
X697832Y503582D01*
X698912Y504030D01*
X699533Y504445D01*
X696100Y507877D01*
D02*
G37*
G36*
X626200Y508286D02*
X621348Y503434D01*
X622455Y502694D01*
X623894Y502098D01*
X625421Y501794D01*
X626979D01*
X628506Y502098D01*
X629945Y502694D01*
X631052Y503434D01*
X626200Y508286D01*
D02*
G37*
G36*
X788779Y500705D02*
X787221D01*
X785694Y500402D01*
X784255Y499806D01*
X783148Y499066D01*
X788000Y494214D01*
X792852Y499066D01*
X791745Y499806D01*
X790306Y500402D01*
X788779Y500705D01*
D02*
G37*
G36*
X794266Y497652D02*
X789414Y492800D01*
X794266Y487948D01*
X795006Y489055D01*
X795602Y490494D01*
X795905Y492021D01*
Y493579D01*
X795602Y495106D01*
X795006Y496545D01*
X794266Y497652D01*
D02*
G37*
G36*
X781734Y497652D02*
X780994Y496545D01*
X780398Y495106D01*
X780094Y493579D01*
Y492021D01*
X780398Y490494D01*
X780994Y489055D01*
X781734Y487948D01*
X786586Y492800D01*
X781734Y497652D01*
D02*
G37*
G36*
X739074Y488832D02*
X737926D01*
X736816Y488535D01*
X736203Y488181D01*
X738500Y485884D01*
X740797Y488181D01*
X740184Y488535D01*
X739074Y488832D01*
D02*
G37*
G36*
X788000Y491386D02*
X783148Y486534D01*
X784255Y485794D01*
X785694Y485198D01*
X787221Y484895D01*
X788779D01*
X790306Y485198D01*
X791745Y485794D01*
X792852Y486534D01*
X788000Y491386D01*
D02*
G37*
G36*
X742211Y486767D02*
X739914Y484470D01*
X742211Y482173D01*
X742565Y482786D01*
X742862Y483896D01*
Y485044D01*
X742565Y486154D01*
X742211Y486767D01*
D02*
G37*
G36*
X734789D02*
X734435Y486154D01*
X734138Y485044D01*
Y483896D01*
X734435Y482786D01*
X734789Y482173D01*
X737086Y484470D01*
X734789Y486767D01*
D02*
G37*
G36*
X738500Y483056D02*
X736203Y480759D01*
X736816Y480405D01*
X737926Y480108D01*
X739074D01*
X740184Y480405D01*
X740797Y480759D01*
X738500Y483056D01*
D02*
G37*
G36*
X788779Y473806D02*
X787221D01*
X785694Y473502D01*
X784255Y472906D01*
X783148Y472166D01*
X788000Y467314D01*
X792852Y472166D01*
X791745Y472906D01*
X790306Y473502D01*
X788779Y473806D01*
D02*
G37*
G36*
X794266Y470752D02*
X789414Y465900D01*
X794266Y461048D01*
X795006Y462155D01*
X795602Y463594D01*
X795905Y465121D01*
Y466679D01*
X795602Y468206D01*
X795006Y469645D01*
X794266Y470752D01*
D02*
G37*
G36*
X781734Y470752D02*
X780994Y469645D01*
X780398Y468206D01*
X780094Y466679D01*
Y465121D01*
X780398Y463594D01*
X780994Y462155D01*
X781734Y461048D01*
X786586Y465900D01*
X781734Y470752D01*
D02*
G37*
G36*
X788000Y464486D02*
X783148Y459634D01*
X784255Y458894D01*
X785694Y458298D01*
X787221Y457995D01*
X788779D01*
X790306Y458298D01*
X791745Y458894D01*
X792852Y459634D01*
X788000Y464486D01*
D02*
G37*
G36*
X306879Y545606D02*
X305321D01*
X303794Y545302D01*
X302355Y544706D01*
X301248Y543966D01*
X306100Y539114D01*
X310952Y543966D01*
X309845Y544706D01*
X308406Y545302D01*
X306879Y545606D01*
D02*
G37*
G36*
X312366Y542552D02*
X307514Y537700D01*
X312366Y532848D01*
X313106Y533955D01*
X313702Y535394D01*
X314005Y536921D01*
Y538479D01*
X313702Y540006D01*
X313106Y541445D01*
X312366Y542552D01*
D02*
G37*
G36*
X299834Y542552D02*
X299094Y541445D01*
X298498Y540006D01*
X298195Y538479D01*
Y536921D01*
X298498Y535394D01*
X299094Y533955D01*
X299834Y532848D01*
X304686Y537700D01*
X299834Y542552D01*
D02*
G37*
G36*
X306100Y536286D02*
X301248Y531434D01*
X302355Y530694D01*
X303794Y530098D01*
X305321Y529795D01*
X306879D01*
X308406Y530098D01*
X309845Y530694D01*
X310952Y531434D01*
X306100Y536286D01*
D02*
G37*
G36*
X220350Y528750D02*
X212880D01*
X216615Y525014D01*
X220350Y528750D01*
D02*
G37*
G36*
X221765Y527335D02*
X218029Y523600D01*
X221765Y519865D01*
Y527335D01*
D02*
G37*
G36*
X211465Y527335D02*
Y519865D01*
X215201Y523600D01*
X211465Y527335D01*
D02*
G37*
G36*
X216615Y522186D02*
X212880Y518450D01*
X220350D01*
X216615Y522186D01*
D02*
G37*
G36*
X318785Y514128D02*
X317615D01*
X316468Y513900D01*
X315388Y513453D01*
X314767Y513038D01*
X318200Y509606D01*
X321633Y513038D01*
X321012Y513453D01*
X319932Y513900D01*
X318785Y514128D01*
D02*
G37*
G36*
X313353Y511624D02*
X312939Y511004D01*
X312491Y509923D01*
X312263Y508776D01*
Y507607D01*
X312491Y506460D01*
X312939Y505379D01*
X313353Y504759D01*
X316786Y508191D01*
X313353Y511624D01*
D02*
G37*
G36*
X323047Y511624D02*
X319614Y508191D01*
X323047Y504759D01*
X323461Y505379D01*
X323909Y506460D01*
X324137Y507607D01*
Y508776D01*
X323909Y509923D01*
X323461Y511004D01*
X323047Y511624D01*
D02*
G37*
G36*
X355089Y506962D02*
X353941D01*
X352831Y506665D01*
X352218Y506311D01*
X354515Y504014D01*
X356812Y506311D01*
X356199Y506665D01*
X355089Y506962D01*
D02*
G37*
G36*
X318200Y506777D02*
X314767Y503344D01*
X315388Y502930D01*
X316468Y502483D01*
X317615Y502254D01*
X318785D01*
X319932Y502483D01*
X321012Y502930D01*
X321633Y503344D01*
X318200Y506777D01*
D02*
G37*
G36*
X358226Y504897D02*
X355929Y502600D01*
X358226Y500303D01*
X358580Y500916D01*
X358877Y502026D01*
Y503174D01*
X358580Y504284D01*
X358226Y504897D01*
D02*
G37*
G36*
X350804Y504897D02*
X350450Y504284D01*
X350153Y503174D01*
Y502026D01*
X350450Y500916D01*
X350804Y500303D01*
X353101Y502600D01*
X350804Y504897D01*
D02*
G37*
G36*
X354515Y501186D02*
X352218Y498889D01*
X352831Y498535D01*
X353941Y498238D01*
X355089D01*
X356199Y498535D01*
X356812Y498889D01*
X354515Y501186D01*
D02*
G37*
G36*
X366579Y474805D02*
X365021D01*
X363494Y474502D01*
X362055Y473906D01*
X360948Y473166D01*
X365800Y468314D01*
X370652Y473166D01*
X369545Y473906D01*
X368106Y474502D01*
X366579Y474805D01*
D02*
G37*
G36*
X359534Y471752D02*
X358794Y470645D01*
X358198Y469206D01*
X357894Y467679D01*
Y466121D01*
X358198Y464594D01*
X358794Y463155D01*
X359534Y462048D01*
X364386Y466900D01*
X359534Y471752D01*
D02*
G37*
G36*
X372066Y471752D02*
X367214Y466900D01*
X372066Y462048D01*
X372806Y463155D01*
X373402Y464594D01*
X373706Y466121D01*
Y467679D01*
X373402Y469206D01*
X372806Y470645D01*
X372066Y471752D01*
D02*
G37*
G36*
X422043Y463504D02*
X415557D01*
X418800Y460261D01*
X422043Y463504D01*
D02*
G37*
G36*
X365800Y465486D02*
X360948Y460634D01*
X362055Y459894D01*
X363494Y459298D01*
X365021Y458994D01*
X366579D01*
X368106Y459298D01*
X369545Y459894D01*
X370652Y460634D01*
X365800Y465486D01*
D02*
G37*
G36*
X423457Y462090D02*
X420214Y458847D01*
X423457Y455603D01*
Y462090D01*
D02*
G37*
G36*
X414143Y462090D02*
Y455603D01*
X417386Y458847D01*
X414143Y462090D01*
D02*
G37*
G36*
X418800Y457432D02*
X415557Y454189D01*
X422043D01*
X418800Y457432D01*
D02*
G37*
G36*
X507379Y545606D02*
X505821D01*
X504294Y545302D01*
X502855Y544706D01*
X501748Y543966D01*
X506600Y539114D01*
X511452Y543966D01*
X510345Y544706D01*
X508906Y545302D01*
X507379Y545606D01*
D02*
G37*
G36*
X512866Y542552D02*
X508014Y537700D01*
X512866Y532848D01*
X513606Y533955D01*
X514202Y535394D01*
X514505Y536921D01*
Y538479D01*
X514202Y540006D01*
X513606Y541445D01*
X512866Y542552D01*
D02*
G37*
G36*
X500334Y542552D02*
X499594Y541445D01*
X498998Y540006D01*
X498695Y538479D01*
Y536921D01*
X498998Y535394D01*
X499594Y533955D01*
X500334Y532848D01*
X505186Y537700D01*
X500334Y542552D01*
D02*
G37*
G36*
X506600Y536286D02*
X501748Y531434D01*
X502855Y530694D01*
X504294Y530098D01*
X505821Y529795D01*
X507379D01*
X508906Y530098D01*
X510345Y530694D01*
X511452Y531434D01*
X506600Y536286D01*
D02*
G37*
G36*
X472813Y463604D02*
X471587D01*
X470402Y463286D01*
X469687Y462874D01*
X472200Y460361D01*
X474713Y462874D01*
X473998Y463286D01*
X472813Y463604D01*
D02*
G37*
G36*
X468273Y461459D02*
X467860Y460744D01*
X467543Y459560D01*
Y458333D01*
X467860Y457149D01*
X468273Y456434D01*
X470786Y458947D01*
X468273Y461459D01*
D02*
G37*
G36*
X476127Y461459D02*
X473614Y458947D01*
X476127Y456433D01*
X476540Y457149D01*
X476858Y458333D01*
Y459560D01*
X476540Y460744D01*
X476127Y461459D01*
D02*
G37*
G36*
X472200Y457532D02*
X469687Y455019D01*
X470402Y454606D01*
X471587Y454289D01*
X472813D01*
X473998Y454606D01*
X474713Y455019D01*
X472200Y457532D01*
D02*
G37*
G36*
X561413Y448673D02*
X560901Y447788D01*
X560550Y446478D01*
Y445122D01*
X560901Y443812D01*
X561413Y442927D01*
X564286Y445800D01*
X561413Y448673D01*
D02*
G37*
G36*
X569987Y448673D02*
X567114Y445800D01*
X569987Y442927D01*
X570499Y443812D01*
X570850Y445122D01*
Y446478D01*
X570499Y447788D01*
X569987Y448673D01*
D02*
G37*
G36*
X236978Y528750D02*
X235622D01*
X234312Y528399D01*
X233427Y527887D01*
X236300Y525014D01*
X239173Y527887D01*
X238288Y528399D01*
X236978Y528750D01*
D02*
G37*
G36*
X240587Y526473D02*
X237714Y523600D01*
X240587Y520727D01*
X241099Y521612D01*
X241450Y522922D01*
Y524278D01*
X241099Y525588D01*
X240587Y526473D01*
D02*
G37*
G36*
X232013Y526473D02*
X231501Y525588D01*
X231150Y524278D01*
Y522922D01*
X231501Y521612D01*
X232013Y520727D01*
X234886Y523600D01*
X232013Y526473D01*
D02*
G37*
G36*
X236300Y522186D02*
X233427Y519313D01*
X234312Y518801D01*
X235622Y518450D01*
X236978D01*
X238288Y518801D01*
X239173Y519313D01*
X236300Y522186D01*
D02*
G37*
G36*
X160079Y497606D02*
X158521D01*
X156994Y497302D01*
X155555Y496706D01*
X154448Y495966D01*
X159300Y491114D01*
X164152Y495966D01*
X163045Y496706D01*
X161606Y497302D01*
X160079Y497606D01*
D02*
G37*
G36*
X165566Y494552D02*
X160714Y489700D01*
X165566Y484848D01*
X166306Y485955D01*
X166902Y487394D01*
X167206Y488921D01*
Y490479D01*
X166902Y492006D01*
X166306Y493445D01*
X165566Y494552D01*
D02*
G37*
G36*
X153034D02*
X152294Y493445D01*
X151698Y492006D01*
X151394Y490479D01*
Y488921D01*
X151698Y487394D01*
X152294Y485955D01*
X153034Y484848D01*
X157886Y489700D01*
X153034Y494552D01*
D02*
G37*
G36*
X159300Y488286D02*
X154448Y483434D01*
X155555Y482694D01*
X156994Y482098D01*
X158521Y481795D01*
X160079D01*
X161606Y482098D01*
X163045Y482694D01*
X164152Y483434D01*
X159300Y488286D01*
D02*
G37*
G36*
X280078Y461050D02*
X278722D01*
X277412Y460699D01*
X276238Y460021D01*
X275279Y459062D01*
X274601Y457888D01*
X274250Y456578D01*
Y455222D01*
X274601Y453912D01*
X275279Y452738D01*
X276238Y451779D01*
X277279Y451178D01*
X277323Y451019D01*
Y450781D01*
X277279Y450622D01*
X276527Y450187D01*
X279400Y447314D01*
X282273Y450187D01*
X281521Y450622D01*
X281477Y450781D01*
Y451019D01*
X281521Y451178D01*
X282562Y451779D01*
X283521Y452738D01*
X284199Y453912D01*
X284550Y455222D01*
Y456578D01*
X284199Y457888D01*
X283521Y459062D01*
X282562Y460021D01*
X281388Y460699D01*
X280078Y461050D01*
D02*
G37*
G36*
X275113Y448773D02*
X274601Y447888D01*
X274250Y446578D01*
Y445222D01*
X274601Y443912D01*
X275113Y443027D01*
X277986Y445900D01*
X275113Y448773D01*
D02*
G37*
G36*
X283687Y448773D02*
X280814Y445900D01*
X283687Y443027D01*
X284199Y443912D01*
X284550Y445222D01*
Y446578D01*
X284199Y447888D01*
X283687Y448773D01*
D02*
G37*
G36*
X542935Y529850D02*
X535465D01*
X539200Y526114D01*
X542935Y529850D01*
D02*
G37*
G36*
X544350Y528435D02*
X540614Y524700D01*
X544350Y520965D01*
Y528435D01*
D02*
G37*
G36*
X534050Y528435D02*
Y520965D01*
X537786Y524700D01*
X534050Y528435D01*
D02*
G37*
G36*
X539200Y523286D02*
X535465Y519550D01*
X542935D01*
X539200Y523286D01*
D02*
G37*
G36*
X566378Y460950D02*
X565022D01*
X563712Y460599D01*
X562827Y460087D01*
X565700Y457214D01*
X568573Y460087D01*
X567688Y460599D01*
X566378Y460950D01*
D02*
G37*
G36*
X626979Y437605D02*
X625421D01*
X623894Y437302D01*
X622455Y436706D01*
X621348Y435966D01*
X626200Y431114D01*
X631052Y435966D01*
X629945Y436706D01*
X628506Y437302D01*
X626979Y437605D01*
D02*
G37*
G36*
X632466Y434552D02*
X627614Y429700D01*
X632466Y424848D01*
X633206Y425955D01*
X633802Y427394D01*
X634105Y428921D01*
Y430479D01*
X633802Y432006D01*
X633206Y433445D01*
X632466Y434552D01*
D02*
G37*
G36*
X619934D02*
X619194Y433445D01*
X618598Y432006D01*
X618294Y430479D01*
Y428921D01*
X618598Y427394D01*
X619194Y425955D01*
X619934Y424848D01*
X624786Y429700D01*
X619934Y434552D01*
D02*
G37*
G36*
X626200Y428286D02*
X621348Y423434D01*
X622455Y422694D01*
X623894Y422098D01*
X625421Y421795D01*
X626979D01*
X628506Y422098D01*
X629945Y422694D01*
X631052Y423434D01*
X626200Y428286D01*
D02*
G37*
G36*
X448443Y463104D02*
X441957D01*
X445200Y459861D01*
X448443Y463104D01*
D02*
G37*
G36*
X449858Y461690D02*
X446614Y458447D01*
X449858Y455203D01*
Y461690D01*
D02*
G37*
G36*
X440543Y461690D02*
Y455203D01*
X443786Y458447D01*
X440543Y461690D01*
D02*
G37*
G36*
X445200Y457032D02*
X441957Y453789D01*
X448443D01*
X445200Y457032D01*
D02*
G37*
G36*
X445159Y427362D02*
X444011D01*
X442901Y427065D01*
X442288Y426711D01*
X444585Y424414D01*
X446882Y426711D01*
X446269Y427065D01*
X445159Y427362D01*
D02*
G37*
G36*
X440874Y425297D02*
X440520Y424684D01*
X440223Y423574D01*
Y422426D01*
X440520Y421316D01*
X440874Y420703D01*
X443171Y423000D01*
X440874Y425297D01*
D02*
G37*
G36*
X448296D02*
X445999Y423000D01*
X448296Y420703D01*
X448650Y421316D01*
X448947Y422426D01*
Y423574D01*
X448650Y424684D01*
X448296Y425297D01*
D02*
G37*
G36*
X444585Y421586D02*
X442288Y419289D01*
X442901Y418935D01*
X444011Y418638D01*
X445159D01*
X446269Y418935D01*
X446882Y419289D01*
X444585Y421586D01*
D02*
G37*
G36*
X28879Y435806D02*
X27321D01*
X25794Y435502D01*
X24355Y434906D01*
X23248Y434166D01*
X28100Y429314D01*
X32952Y434166D01*
X31845Y434906D01*
X30406Y435502D01*
X28879Y435806D01*
D02*
G37*
G36*
X34366Y432752D02*
X29514Y427900D01*
X34366Y423048D01*
X35106Y424155D01*
X35702Y425594D01*
X36005Y427121D01*
Y428679D01*
X35702Y430206D01*
X35106Y431645D01*
X34366Y432752D01*
D02*
G37*
G36*
X21834Y432752D02*
X21094Y431645D01*
X20498Y430206D01*
X20195Y428679D01*
Y427121D01*
X20498Y425594D01*
X21094Y424155D01*
X21834Y423048D01*
X26686Y427900D01*
X21834Y432752D01*
D02*
G37*
G36*
X28100Y426486D02*
X23248Y421634D01*
X24355Y420894D01*
X25794Y420298D01*
X27321Y419994D01*
X28879D01*
X30406Y420298D01*
X31845Y420894D01*
X32952Y421634D01*
X28100Y426486D01*
D02*
G37*
G36*
X160079Y417605D02*
X158521D01*
X156994Y417302D01*
X155555Y416706D01*
X154448Y415966D01*
X159300Y411114D01*
X164152Y415966D01*
X163045Y416706D01*
X161606Y417302D01*
X160079Y417605D01*
D02*
G37*
G36*
X165566Y414552D02*
X160714Y409700D01*
X165566Y404848D01*
X166306Y405955D01*
X166902Y407394D01*
X167206Y408921D01*
Y410479D01*
X166902Y412006D01*
X166306Y413445D01*
X165566Y414552D01*
D02*
G37*
G36*
X153034D02*
X152294Y413445D01*
X151698Y412006D01*
X151394Y410479D01*
Y408921D01*
X151698Y407394D01*
X152294Y405955D01*
X153034Y404848D01*
X157886Y409700D01*
X153034Y414552D01*
D02*
G37*
G36*
X85685Y409246D02*
X84515D01*
X83368Y409018D01*
X82288Y408570D01*
X81667Y408155D01*
X85100Y404723D01*
X88533Y408155D01*
X87912Y408570D01*
X86832Y409018D01*
X85685Y409246D01*
D02*
G37*
G36*
X28879Y410505D02*
X27321D01*
X25794Y410202D01*
X24355Y409606D01*
X23248Y408866D01*
X28100Y404014D01*
X32952Y408866D01*
X31845Y409606D01*
X30406Y410202D01*
X28879Y410505D01*
D02*
G37*
G36*
X159300Y408286D02*
X154448Y403434D01*
X155555Y402694D01*
X156994Y402098D01*
X158521Y401794D01*
X160079D01*
X161606Y402098D01*
X163045Y402694D01*
X164152Y403434D01*
X159300Y408286D01*
D02*
G37*
G36*
X80253Y406741D02*
X79839Y406121D01*
X79391Y405040D01*
X79163Y403893D01*
Y402724D01*
X79391Y401577D01*
X79839Y400496D01*
X80253Y399876D01*
X83686Y403309D01*
X80253Y406741D01*
D02*
G37*
G36*
X89947Y406741D02*
X86514Y403309D01*
X89947Y399876D01*
X90361Y400496D01*
X90809Y401577D01*
X91037Y402724D01*
Y403893D01*
X90809Y405040D01*
X90361Y406121D01*
X89947Y406741D01*
D02*
G37*
G36*
X34366Y407452D02*
X29514Y402600D01*
X34366Y397748D01*
X35106Y398855D01*
X35702Y400294D01*
X36005Y401821D01*
Y403379D01*
X35702Y404906D01*
X35106Y406345D01*
X34366Y407452D01*
D02*
G37*
G36*
X21834Y407452D02*
X21094Y406345D01*
X20498Y404906D01*
X20195Y403379D01*
Y401821D01*
X20498Y400294D01*
X21094Y398855D01*
X21834Y397748D01*
X26686Y402600D01*
X21834Y407452D01*
D02*
G37*
G36*
X85100Y401894D02*
X81667Y398462D01*
X82288Y398047D01*
X83368Y397600D01*
X84515Y397372D01*
X85685D01*
X86832Y397600D01*
X87912Y398047D01*
X88533Y398462D01*
X85100Y401894D01*
D02*
G37*
G36*
X28100Y401186D02*
X23248Y396334D01*
X24355Y395594D01*
X25794Y394998D01*
X27321Y394694D01*
X28879D01*
X30406Y394998D01*
X31845Y395594D01*
X32952Y396334D01*
X28100Y401186D01*
D02*
G37*
G36*
X739074Y449462D02*
X737926D01*
X736816Y449165D01*
X736203Y448811D01*
X738500Y446514D01*
X740797Y448811D01*
X740184Y449165D01*
X739074Y449462D01*
D02*
G37*
G36*
X742211Y447397D02*
X739914Y445100D01*
X742211Y442803D01*
X742565Y443416D01*
X742862Y444526D01*
Y445674D01*
X742565Y446784D01*
X742211Y447397D01*
D02*
G37*
G36*
X734789D02*
X734435Y446784D01*
X734138Y445674D01*
Y444526D01*
X734435Y443416D01*
X734789Y442803D01*
X737086Y445100D01*
X734789Y447397D01*
D02*
G37*
G36*
X738500Y443686D02*
X736203Y441389D01*
X736816Y441035D01*
X737926Y440738D01*
X739074D01*
X740184Y441035D01*
X740797Y441389D01*
X738500Y443686D01*
D02*
G37*
G36*
X788779Y439906D02*
X787221D01*
X785694Y439602D01*
X784255Y439006D01*
X783148Y438266D01*
X788000Y433414D01*
X792852Y438266D01*
X791745Y439006D01*
X790306Y439602D01*
X788779Y439906D01*
D02*
G37*
G36*
X794266Y436852D02*
X789414Y432000D01*
X794266Y427148D01*
X795006Y428255D01*
X795602Y429694D01*
X795905Y431221D01*
Y432779D01*
X795602Y434306D01*
X795006Y435745D01*
X794266Y436852D01*
D02*
G37*
G36*
X781734Y436852D02*
X780994Y435745D01*
X780398Y434306D01*
X780094Y432779D01*
Y431221D01*
X780398Y429694D01*
X780994Y428255D01*
X781734Y427148D01*
X786586Y432000D01*
X781734Y436852D01*
D02*
G37*
G36*
X788000Y430586D02*
X783148Y425734D01*
X784255Y424994D01*
X785694Y424398D01*
X787221Y424094D01*
X788779D01*
X790306Y424398D01*
X791745Y424994D01*
X792852Y425734D01*
X788000Y430586D01*
D02*
G37*
G36*
X696685Y426646D02*
X695515D01*
X694368Y426417D01*
X693288Y425970D01*
X692667Y425556D01*
X696100Y422123D01*
X699533Y425556D01*
X698912Y425970D01*
X697832Y426417D01*
X696685Y426646D01*
D02*
G37*
G36*
X700947Y424141D02*
X697514Y420709D01*
X700947Y417276D01*
X701361Y417896D01*
X701809Y418977D01*
X702037Y420124D01*
Y421293D01*
X701809Y422440D01*
X701361Y423521D01*
X700947Y424141D01*
D02*
G37*
G36*
X691253Y424141D02*
X690839Y423521D01*
X690391Y422440D01*
X690163Y421293D01*
Y420124D01*
X690391Y418977D01*
X690839Y417896D01*
X691253Y417276D01*
X694686Y420709D01*
X691253Y424141D01*
D02*
G37*
G36*
X696100Y419294D02*
X692667Y415862D01*
X693288Y415447D01*
X694368Y415000D01*
X695515Y414772D01*
X696685D01*
X697832Y415000D01*
X698912Y415447D01*
X699533Y415862D01*
X696100Y419294D01*
D02*
G37*
G36*
X788779Y412806D02*
X787221D01*
X785694Y412502D01*
X784255Y411906D01*
X783148Y411166D01*
X788000Y406314D01*
X792852Y411166D01*
X791745Y411906D01*
X790306Y412502D01*
X788779Y412806D01*
D02*
G37*
G36*
X794266Y409752D02*
X789414Y404900D01*
X794266Y400048D01*
X795006Y401155D01*
X795602Y402594D01*
X795905Y404121D01*
Y405679D01*
X795602Y407206D01*
X795006Y408645D01*
X794266Y409752D01*
D02*
G37*
G36*
X781734Y409752D02*
X780994Y408645D01*
X780398Y407206D01*
X780094Y405679D01*
Y404121D01*
X780398Y402594D01*
X780994Y401155D01*
X781734Y400048D01*
X786586Y404900D01*
X781734Y409752D01*
D02*
G37*
G36*
X788000Y403486D02*
X783148Y398634D01*
X784255Y397894D01*
X785694Y397298D01*
X787221Y396994D01*
X788779D01*
X790306Y397298D01*
X791745Y397894D01*
X792852Y398634D01*
X788000Y403486D01*
D02*
G37*
G36*
X698891Y399100D02*
X697709D01*
X696550Y398869D01*
X695458Y398417D01*
X694822Y397992D01*
X698300Y394514D01*
X701778Y397992D01*
X701142Y398417D01*
X700050Y398869D01*
X698891Y399100D01*
D02*
G37*
G36*
X703192Y396578D02*
X699714Y393100D01*
X703192Y389622D01*
X703617Y390258D01*
X704069Y391350D01*
X704300Y392509D01*
Y393691D01*
X704069Y394850D01*
X703617Y395942D01*
X703192Y396578D01*
D02*
G37*
G36*
X693408D02*
X692983Y395942D01*
X692531Y394850D01*
X692300Y393691D01*
Y392509D01*
X692531Y391350D01*
X692983Y390258D01*
X693408Y389622D01*
X696886Y393100D01*
X693408Y396578D01*
D02*
G37*
G36*
X698300Y391686D02*
X694822Y388208D01*
X695458Y387783D01*
X696550Y387331D01*
X697709Y387100D01*
X698891D01*
X700050Y387331D01*
X701142Y387783D01*
X701778Y388208D01*
X698300Y391686D01*
D02*
G37*
%LPD*%
D10*
X608000Y237000D02*
X617000Y246000D01*
X236000Y308000D02*
X236215Y307785D01*
Y293500D02*
Y307785D01*
X246042Y222200D02*
X252000Y228157D01*
Y235000D01*
Y225000D02*
Y228157D01*
X257271Y219729D02*
X265271D01*
X266000Y219000D01*
X252000Y225000D02*
X257271Y219729D01*
X568174Y261326D02*
X572000Y257500D01*
X555403Y262055D02*
X556132Y261326D01*
X568174D01*
X572000Y257500D02*
Y266514D01*
X617000Y246000D02*
Y250157D01*
X632000D01*
X608000Y237000D02*
X631000D01*
X602000Y227500D02*
Y231000D01*
X608000Y237000D01*
X723500Y214957D02*
Y218500D01*
Y226800D01*
X729271Y212729D02*
X735271D01*
X723500Y218500D02*
X729271Y212729D01*
X735271D02*
X736000Y212000D01*
X693000Y280969D02*
X703500Y270469D01*
Y264643D02*
Y270469D01*
Y264643D02*
X709657Y270800D01*
X693000Y280969D02*
Y282000D01*
X738400Y305600D02*
X770000Y274000D01*
X716600Y44000D02*
X770000Y97400D01*
Y274000D01*
X294600Y330847D02*
X324147D01*
X721142Y199700D02*
Y213000D01*
Y199700D02*
X721243Y199600D01*
X246143Y208800D02*
X246242Y208700D01*
X246143Y208800D02*
Y222100D01*
X362343Y336457D02*
X391500Y307300D01*
X496686Y356000D02*
X507000D01*
X492000Y351314D02*
X496686Y356000D01*
X582557Y271200D02*
Y285700D01*
X709758Y271000D02*
Y284100D01*
X582557Y285700D02*
X582758Y285900D01*
X576686Y271200D02*
X582557D01*
X709657Y270900D02*
X709758Y271000D01*
X572000Y266514D02*
X576686Y271200D01*
X477700Y350842D02*
X492000D01*
Y351314D01*
X477500Y351043D02*
X477700Y350842D01*
X703500Y256800D02*
Y264643D01*
X421842Y351043D02*
X477500D01*
X341100Y336457D02*
X356100D01*
X362343D01*
X336442Y331800D02*
X341100Y336457D01*
X325100Y331800D02*
X336442D01*
X324147Y330847D02*
X325100Y331800D01*
X236215Y293500D02*
X236258Y293458D01*
Y280100D02*
Y293458D01*
X232000Y275842D02*
X236157Y280000D01*
X232000Y265000D02*
Y275842D01*
X226458Y208800D02*
Y222100D01*
Y208800D02*
X226557Y208700D01*
X337771Y361800D02*
X343429Y356142D01*
X255842Y280000D02*
X262000Y273843D01*
X729343Y270900D02*
X733500Y266742D01*
X729343Y270900D02*
X729443Y271000D01*
Y284100D01*
X733554Y305600D02*
X738400D01*
X220342Y69500D02*
Y84500D01*
X62347Y97654D02*
Y222983D01*
X693500Y218100D02*
X698600Y213000D01*
X701458D01*
X693500Y218100D02*
Y226800D01*
X701557Y199600D02*
Y212900D01*
X701458Y213000D02*
X701557Y212900D01*
X255900Y280142D02*
Y293500D01*
Y280142D02*
X255943Y280100D01*
X477500Y331358D02*
X477700Y331157D01*
X492000D01*
X432000Y44000D02*
X716600D01*
X62347Y222983D02*
X78164Y238800D01*
X200700Y43600D02*
X237400D01*
X220342Y60658D02*
Y69500D01*
X237400Y43600D02*
X431800D01*
X220342Y60658D02*
X237400Y43600D01*
X200700D02*
Y44700D01*
X158800Y43600D02*
X200700D01*
X183100Y62300D02*
X200700Y44700D01*
X183100Y62300D02*
Y115328D01*
X196138Y128365D01*
X148000Y54400D02*
X158800Y43600D01*
X116400D02*
X158800D01*
X148000Y54400D02*
Y74347D01*
X62347Y97654D02*
X116400Y43600D01*
X226138Y90295D02*
Y98365D01*
X220342Y84500D02*
X226138Y90295D01*
X200658Y69500D02*
Y84500D01*
X196138Y89020D02*
Y98365D01*
Y89020D02*
X200658Y84500D01*
X733500Y256800D02*
Y266742D01*
X63226Y146726D02*
X94500Y178000D01*
X142988D01*
X497157Y326000D02*
X507000D01*
X492000Y331157D02*
X497157Y326000D01*
X325100Y361800D02*
X337771D01*
X343429Y356142D02*
X356100D01*
X262000Y265000D02*
Y273843D01*
X222000Y226157D02*
X226157Y222000D01*
X222000Y226157D02*
Y235000D01*
X62347Y222983D02*
Y260000D01*
Y284000D01*
D11*
X450500Y168154D02*
Y197500D01*
X450000Y167654D02*
X450500Y168154D01*
Y197500D02*
X451000Y198000D01*
X228000Y323000D02*
X252300D01*
X222000Y317000D02*
X228000Y323000D01*
X222000Y271000D02*
Y317000D01*
X252300Y323000D02*
X275900Y299400D01*
X290000Y209000D02*
Y228346D01*
X281400Y200400D02*
X290000Y209000D01*
X261100Y200400D02*
X281400D01*
X258700D02*
X261100D01*
X254000Y195700D02*
X258700Y200400D01*
X240200Y195700D02*
X254000D01*
X198200Y250000D02*
X237000D01*
X241253Y235747D02*
Y245747D01*
X237000Y250000D02*
X241253Y245747D01*
X175800Y227600D02*
X198200Y250000D01*
X222000Y265000D02*
Y271000D01*
X215000Y278000D02*
X222000Y271000D01*
X532307Y206050D02*
X532657Y205700D01*
X512650Y206050D02*
X532307D01*
X512300Y206400D02*
X512650Y206050D01*
X450000Y124346D02*
X450319Y124027D01*
X683000Y268100D02*
X689300D01*
X664800D02*
X683000D01*
X677000Y274100D02*
Y292354D01*
Y274100D02*
X683000Y268100D01*
X677000Y292354D02*
X690246Y305600D01*
X689300Y268100D02*
X693500Y263900D01*
X506994Y356006D02*
Y373494D01*
Y356006D02*
X507000Y356000D01*
X506988Y373500D02*
X506994Y373494D01*
X290000Y228346D02*
X290347Y228000D01*
X309653D01*
X310000Y227654D01*
X709000Y388000D02*
X783653Y313347D01*
Y176000D02*
Y313347D01*
X40000Y352346D02*
Y398000D01*
Y352346D02*
X66347Y326000D01*
X260000Y445000D02*
X261000Y446000D01*
X247000Y352000D02*
X260000Y365000D01*
Y445000D01*
X611000Y415000D02*
X612000Y414000D01*
Y348000D02*
Y414000D01*
X586400Y335400D02*
X599400D01*
X612000Y348000D01*
X586377Y369623D02*
X586500Y369500D01*
X562100Y369746D02*
X562223Y369623D01*
X586377D01*
X537000Y326000D02*
X577000D01*
X586400Y335400D01*
X632754Y195400D02*
X659428D01*
X660600Y196572D02*
Y205554D01*
X659428Y195400D02*
X660600Y196572D01*
X662954Y178200D02*
X675454Y190700D01*
X662800Y178200D02*
X662954D01*
X562100Y413054D02*
Y413854D01*
X565700Y417454D02*
Y435800D01*
X562100Y413854D02*
X565700Y417454D01*
X279400Y425201D02*
Y435900D01*
X276400Y412753D02*
Y422200D01*
X279400Y425201D01*
X236500Y199400D02*
Y225200D01*
Y199400D02*
X240200Y195700D01*
X232653Y229047D02*
Y234347D01*
Y229047D02*
X236500Y225200D01*
X232000Y235000D02*
X232653Y234347D01*
X459200Y318300D02*
Y337600D01*
X295100Y341800D02*
Y351800D01*
X274500D02*
X288100D01*
X274200Y352100D02*
X274500Y351800D01*
X276400Y363500D02*
Y369446D01*
Y363500D02*
X288100Y351800D01*
X295100D01*
X325100Y341800D02*
X331800D01*
X336100Y346100D02*
X373200D01*
X374200Y347100D01*
X331800Y341800D02*
X336100Y346100D01*
X314500Y341800D02*
X325100D01*
X309700Y346600D02*
X314500Y341800D01*
X309700Y346600D02*
Y378000D01*
X647700Y293000D02*
X654500Y286200D01*
Y261854D02*
Y286200D01*
X541600Y320823D02*
X558300Y304123D01*
X537000Y325423D02*
X541600Y320823D01*
Y306557D02*
Y320823D01*
X558300Y303547D02*
Y304123D01*
X537000Y325423D02*
Y326000D01*
X530300Y295257D02*
X541600Y306557D01*
X558300Y342400D02*
Y346853D01*
X551900Y336000D02*
X558300Y342400D01*
X537000Y336000D02*
X551900D01*
X561861Y365261D02*
Y369507D01*
X537747Y346747D02*
X543347D01*
X561861Y369507D02*
X562100Y369746D01*
X543347Y346747D02*
X561861Y365261D01*
X537000Y346000D02*
X537747Y346747D01*
X537006Y356006D02*
Y373494D01*
X537000Y356000D02*
X537006Y356006D01*
Y373494D02*
X537012Y373500D01*
X525700Y319543D02*
X530300Y314943D01*
X525700Y319543D02*
Y350800D01*
X530900Y356000D01*
X537000D01*
X517700Y319080D02*
Y333200D01*
X514300Y314943D02*
Y315680D01*
X517700Y319080D01*
X514900Y336000D02*
X517700Y333200D01*
X507000Y336000D02*
X514900D01*
X461855Y337600D02*
X464755Y340500D01*
X459200Y337600D02*
X461855D01*
X464755Y340500D02*
X495800D01*
X506747Y345747D02*
X507000Y346000D01*
X501047Y345747D02*
X506747D01*
X495800Y340500D02*
X501047Y345747D01*
X708900Y195800D02*
Y221400D01*
X703800Y190700D02*
X708900Y195800D01*
X675454Y190700D02*
X703800D01*
X660600Y205554D02*
X675454Y190700D01*
X601200Y212800D02*
X637853D01*
X592000Y222000D02*
X601200Y212800D01*
X592000Y222000D02*
Y227500D01*
X582000Y215900D02*
Y227500D01*
X600000Y190200D02*
Y197900D01*
X582000Y215900D02*
X600000Y197900D01*
X561100Y216600D02*
X572000Y227500D01*
X558800Y216600D02*
X561100D01*
X104336Y233100D02*
X112700Y224736D01*
Y222700D02*
Y224736D01*
X98636Y238800D02*
X104336Y233100D01*
X88400Y254000D02*
X94400Y260000D01*
X88400Y238800D02*
Y254000D01*
X175840Y308186D02*
X201714D01*
X175654Y308000D02*
X175840Y308186D01*
X201714D02*
X201900Y308372D01*
X132346Y288000D02*
X142483Y298136D01*
X201900D01*
X613400Y61700D02*
X688400Y136700D01*
X262000Y98000D02*
X298300Y61700D01*
X613400D01*
X262000Y98000D02*
Y158300D01*
X288047Y184346D02*
X310000D01*
X262000Y158300D02*
X288047Y184346D01*
X532657Y205700D02*
X543558Y216600D01*
X558800D02*
X580000Y195400D01*
X543558Y216600D02*
X558800D01*
X593500Y183700D02*
X640800D01*
X587300D02*
X593500D01*
X587300D02*
X590400Y180600D01*
X577953Y183700D02*
X587300D01*
X733500Y176000D02*
X740346D01*
X717654Y158000D02*
X718288Y158634D01*
Y160788D01*
X733500Y176000D01*
X640800Y183700D02*
X666500Y158000D01*
X593500Y183700D02*
X600000Y190200D01*
X666500Y158000D02*
X674346D01*
X590400Y169600D02*
Y180600D01*
X637853Y212800D02*
X647926Y202727D01*
X530858Y180137D02*
X532657Y181937D01*
Y205700D01*
X530858Y179400D02*
Y180137D01*
X571900Y146447D02*
Y158043D01*
X550542Y179400D02*
X571900Y158043D01*
X580000Y195400D02*
X589446D01*
X552343Y205700D02*
X552864Y205179D01*
X556475D02*
X571900Y189753D01*
X552864Y205179D02*
X556475D01*
X589446Y195400D02*
X589723Y195677D01*
X571900Y189753D02*
X577953Y183700D01*
X654500Y218547D02*
X660600Y212446D01*
Y205554D02*
Y212446D01*
X535000Y108200D02*
X535000D01*
X525654Y117546D02*
X535000Y108200D01*
X648000Y151746D02*
Y159346D01*
X535000Y108200D02*
X547300Y95900D01*
X646946Y150693D02*
X648000Y151746D01*
X636000Y150693D02*
X646946D01*
X170300Y233100D02*
X175800Y227600D01*
X104336Y233100D02*
X170300Y233100D01*
X508347Y108000D02*
X534800D01*
X535000Y108200D01*
X206138Y128365D02*
X216138D01*
X177858Y140658D02*
X179400Y142200D01*
X177858Y140625D02*
Y140658D01*
X176236Y138000D02*
Y139004D01*
X177858Y140625D01*
X199800Y142200D02*
X206138Y135862D01*
X179400Y142200D02*
X199800D01*
X206138Y128365D02*
Y135862D01*
Y98365D02*
Y128365D01*
X148000Y117654D02*
Y130236D01*
X155764Y138000D01*
X688400Y136700D02*
Y149200D01*
X713500Y174300D01*
X547300Y95900D02*
X588058D01*
X525654Y117546D02*
Y124000D01*
X588058Y95900D02*
X630158Y138000D01*
X655134Y262488D02*
X659188D01*
X654500Y261854D02*
X655134Y262488D01*
X659188D02*
X664800Y268100D01*
X693500Y256800D02*
Y263900D01*
X713500Y174300D02*
Y226800D01*
X673193Y138000D02*
X673793Y138600D01*
X649843Y138000D02*
X673193D01*
X703500Y226800D02*
X708900Y221400D01*
X630158Y138000D02*
Y144850D01*
X636000Y150693D01*
X508347Y108000D02*
X508673Y108327D01*
Y146799D01*
X509000Y147126D01*
X485934Y124634D02*
X489000Y127700D01*
X482981Y124634D02*
X485934D01*
X489000Y127700D02*
Y147100D01*
X482346Y124000D02*
X482981Y124634D01*
X450319Y124027D02*
X482319D01*
X482346Y124000D01*
X529000Y145293D02*
Y147100D01*
Y145293D02*
X543947Y130347D01*
X552000D01*
X99100Y342000D02*
X100977Y340123D01*
Y334676D02*
X109653Y326000D01*
X100977Y334676D02*
Y340123D01*
X109653Y326000D02*
X132346D01*
X110400Y223100D02*
Y224400D01*
X275900Y285753D02*
Y299400D01*
Y285753D02*
X290000Y271654D01*
X241253Y235747D02*
X242000Y235000D01*
X94400Y260000D02*
X105654D01*
X113654Y268000D01*
X216138Y103138D02*
X222100Y109100D01*
X216138Y98365D02*
Y103138D01*
X222100Y109100D02*
X233581D01*
X244681Y98000D01*
X216069Y128434D02*
X216138Y128365D01*
X718288Y153870D02*
Y157366D01*
Y153870D02*
X728158Y144000D01*
X717654Y158000D02*
X718288Y157366D01*
X551653Y108000D02*
X551827Y108173D01*
Y130173D01*
X552000Y130347D01*
X132346Y288000D02*
Y308000D01*
X175654D02*
Y326000D01*
X127655Y284000D02*
X133656Y278000D01*
X215000D01*
X105654Y284000D02*
X127655D01*
X113654Y268000D02*
X130988D01*
X165654Y246000D02*
Y263358D01*
X161012Y268000D02*
X165654Y263358D01*
X166000Y121654D02*
Y138000D01*
Y138988D01*
Y121654D02*
X170000Y117654D01*
Y117654D02*
Y117654D01*
X238000Y140228D02*
Y152157D01*
X226138Y128365D02*
X238000Y140228D01*
X216000Y152157D02*
X216069Y152089D01*
Y128434D02*
Y152089D01*
X142988Y162000D02*
X166000Y138988D01*
X173012Y162000D02*
Y178000D01*
X244681Y98000D02*
X262000D01*
D12*
X319999Y143986D02*
X316000D01*
Y137988D01*
X319999D01*
X316000Y140987D02*
X317999D01*
X325997Y143986D02*
X321998D01*
Y137988D01*
X325997D01*
X321998Y140987D02*
X323997D01*
X331995Y142986D02*
X330995Y143986D01*
X328996D01*
X327996Y142986D01*
Y138987D01*
X328996Y137988D01*
X330995D01*
X331995Y138987D01*
X337993Y142986D02*
X336993Y143986D01*
X334994D01*
X333994Y142986D01*
Y141986D01*
X334994Y140987D01*
X336993D01*
X337993Y139987D01*
Y138987D01*
X336993Y137988D01*
X334994D01*
X333994Y138987D01*
X348989Y137988D02*
Y143986D01*
X345990Y140987D01*
X349989D01*
X351988Y138987D02*
X352988Y137988D01*
X354987D01*
X355987Y138987D01*
Y142986D01*
X354987Y143986D01*
X352988D01*
X351988Y142986D01*
Y141986D01*
X352988Y140987D01*
X355987D01*
X357986Y142986D02*
X358986Y143986D01*
X360985D01*
X361985Y142986D01*
Y141986D01*
X360985Y140987D01*
X361985Y139987D01*
Y138987D01*
X360985Y137988D01*
X358986D01*
X357986Y138987D01*
Y139987D01*
X358986Y140987D01*
X357986Y141986D01*
Y142986D01*
X358986Y140987D02*
X360985D01*
X363984D02*
X367983D01*
X369983Y142986D02*
X370982Y143986D01*
X372982D01*
X373981Y142986D01*
Y138987D01*
X372982Y137988D01*
X370982D01*
X369983Y138987D01*
Y142986D01*
X375981D02*
X376980Y143986D01*
X378980D01*
X379979Y142986D01*
Y138987D01*
X378980Y137988D01*
X376980D01*
X375981Y138987D01*
Y142986D01*
X385977Y143986D02*
X381979D01*
Y140987D01*
X383978Y141986D01*
X384978D01*
X385977Y140987D01*
Y138987D01*
X384978Y137988D01*
X382978D01*
X381979Y138987D01*
X397973Y143986D02*
X393975D01*
Y140987D01*
X395974D01*
X393975D01*
Y137988D01*
X403971D02*
X399973D01*
X403971Y141986D01*
Y142986D01*
X402972Y143986D01*
X400973D01*
X399973Y142986D01*
X405971D02*
X406971Y143986D01*
X408970D01*
X409970Y142986D01*
Y141986D01*
X408970Y140987D01*
X407970D01*
X408970D01*
X409970Y139987D01*
Y138987D01*
X408970Y137988D01*
X406971D01*
X405971Y138987D01*
X316000Y128390D02*
Y134388D01*
X318999D01*
X319999Y133388D01*
Y131389D01*
X318999Y130389D01*
X316000D01*
X322998Y128390D02*
X324997D01*
X325997Y129390D01*
Y131389D01*
X324997Y132389D01*
X322998D01*
X321998Y131389D01*
Y129390D01*
X322998Y128390D01*
X327996Y132389D02*
Y129390D01*
X328996Y128390D01*
X329995Y129390D01*
X330995Y128390D01*
X331995Y129390D01*
Y132389D01*
X336993Y128390D02*
X334994D01*
X333994Y129390D01*
Y131389D01*
X334994Y132389D01*
X336993D01*
X337993Y131389D01*
Y130389D01*
X333994D01*
X339992Y132389D02*
Y128390D01*
Y130389D01*
X340992Y131389D01*
X341992Y132389D01*
X342991D01*
X355987Y133388D02*
X354987Y134388D01*
X352988D01*
X351988Y133388D01*
Y129390D01*
X352988Y128390D01*
X354987D01*
X355987Y129390D01*
X358986Y128390D02*
X360985D01*
X361985Y129390D01*
Y131389D01*
X360985Y132389D01*
X358986D01*
X357986Y131389D01*
Y129390D01*
X358986Y128390D01*
X363984D02*
Y132389D01*
X366984D01*
X367983Y131389D01*
Y128390D01*
X369983Y132389D02*
X371982Y128390D01*
X373981Y132389D01*
X378980Y128390D02*
X376980D01*
X375981Y129390D01*
Y131389D01*
X376980Y132389D01*
X378980D01*
X379979Y131389D01*
Y130389D01*
X375981D01*
X381979Y132389D02*
Y128390D01*
Y130389D01*
X382978Y131389D01*
X383978Y132389D01*
X384978D01*
X388976Y133388D02*
Y132389D01*
X387977D01*
X389976D01*
X388976D01*
Y129390D01*
X389976Y128390D01*
X395974D02*
X393975D01*
X392975Y129390D01*
Y131389D01*
X393975Y132389D01*
X395974D01*
X396974Y131389D01*
Y130389D01*
X392975D01*
X398973Y132389D02*
Y128390D01*
Y130389D01*
X399973Y131389D01*
X400973Y132389D01*
X401972D01*
X316000Y109195D02*
Y115193D01*
X319999Y109195D01*
Y115193D01*
X322998Y113193D02*
X324997D01*
X325997Y112194D01*
Y109195D01*
X322998D01*
X321998Y110194D01*
X322998Y111194D01*
X325997D01*
X328996Y114193D02*
Y113193D01*
X327996D01*
X329995D01*
X328996D01*
Y110194D01*
X329995Y109195D01*
X332995Y115193D02*
Y109195D01*
Y112194D01*
X333994Y113193D01*
X335994D01*
X336993Y112194D01*
Y109195D01*
X339992Y113193D02*
X341992D01*
X342991Y112194D01*
Y109195D01*
X339992D01*
X338993Y110194D01*
X339992Y111194D01*
X342991D01*
X344991Y109195D02*
Y113193D01*
X347990D01*
X348989Y112194D01*
Y109195D01*
X350989D02*
X352988D01*
X351988D01*
Y113193D01*
X350989D01*
X358986Y109195D02*
X356987D01*
X355987Y110194D01*
Y112194D01*
X356987Y113193D01*
X358986D01*
X359986Y112194D01*
Y111194D01*
X355987D01*
X361985Y109195D02*
X363984D01*
X362985D01*
Y115193D01*
X361985D01*
X372982D02*
Y109195D01*
Y111194D01*
X376980Y115193D01*
X373981Y112194D01*
X376980Y109195D01*
X379979Y113193D02*
X381979D01*
X382978Y112194D01*
Y109195D01*
X379979D01*
X378980Y110194D01*
X379979Y111194D01*
X382978D01*
X384978Y109195D02*
X386977D01*
X385977D01*
Y115193D01*
X384978D01*
X390976Y113193D02*
X392975D01*
X393975Y112194D01*
Y109195D01*
X390976D01*
X389976Y110194D01*
X390976Y111194D01*
X393975D01*
X395974Y109195D02*
Y113193D01*
X398973D01*
X399973Y112194D01*
Y109195D01*
X402972Y114193D02*
Y113193D01*
X401972D01*
X403971D01*
X402972D01*
Y110194D01*
X403971Y109195D01*
X407970Y113193D02*
X409970D01*
X410969Y112194D01*
Y109195D01*
X407970D01*
X406971Y110194D01*
X407970Y111194D01*
X410969D01*
X412969Y113193D02*
Y109195D01*
Y111194D01*
X413968Y112194D01*
X414968Y113193D01*
X415968D01*
X316000Y105595D02*
Y104595D01*
X317999Y102596D01*
X319999Y104595D01*
Y105595D01*
X317999Y102596D02*
Y99597D01*
X321998Y103596D02*
Y100597D01*
X322998Y99597D01*
X325997D01*
Y103596D01*
X327996Y105595D02*
Y99597D01*
Y102596D01*
X328996Y103596D01*
X330995D01*
X331995Y102596D01*
Y99597D01*
X334994Y103596D02*
X336993D01*
X337993Y102596D01*
Y99597D01*
X334994D01*
X333994Y100597D01*
X334994Y101596D01*
X337993D01*
X340992Y99597D02*
X342991D01*
X343991Y100597D01*
Y102596D01*
X342991Y103596D01*
X340992D01*
X339992Y102596D01*
Y100597D01*
X340992Y99597D01*
X351988Y105595D02*
X355987D01*
Y104595D01*
X351988Y100597D01*
Y99597D01*
X355987D01*
X357986Y105595D02*
Y99597D01*
Y102596D01*
X358986Y103596D01*
X360985D01*
X361985Y102596D01*
Y99597D01*
X364984D02*
X366984D01*
X367983Y100597D01*
Y102596D01*
X366984Y103596D01*
X364984D01*
X363984Y102596D01*
Y100597D01*
X364984Y99597D01*
X369983Y103596D02*
Y100597D01*
X370982Y99597D01*
X373981D01*
Y103596D01*
X316000Y95997D02*
Y89999D01*
Y92998D01*
X319999D01*
Y95997D01*
Y89999D01*
X322998Y93998D02*
X324997D01*
X325997Y92998D01*
Y89999D01*
X322998D01*
X321998Y90999D01*
X322998Y91999D01*
X325997D01*
X328996Y89999D02*
X330995D01*
X331995Y90999D01*
Y92998D01*
X330995Y93998D01*
X328996D01*
X327996Y92998D01*
Y90999D01*
X328996Y89999D01*
X333994Y93998D02*
Y90999D01*
X334994Y89999D01*
X337993D01*
Y89000D01*
X336993Y88000D01*
X335994D01*
X337993Y89999D02*
Y93998D01*
X339992D02*
Y90999D01*
X340992Y89999D01*
X343991D01*
Y93998D01*
X346990D02*
X348989D01*
X349989Y92998D01*
Y89999D01*
X346990D01*
X345990Y90999D01*
X346990Y91999D01*
X349989D01*
X351988Y89999D02*
Y93998D01*
X354987D01*
X355987Y92998D01*
Y89999D01*
X363984Y95997D02*
X367983Y89999D01*
Y95997D02*
X363984Y89999D01*
X369983D02*
X371982D01*
X370982D01*
Y93998D01*
X369983D01*
X375981D02*
X377980D01*
X378980Y92998D01*
Y89999D01*
X375981D01*
X374981Y90999D01*
X375981Y91999D01*
X378980D01*
X381979Y89999D02*
X383978D01*
X384978Y90999D01*
Y92998D01*
X383978Y93998D01*
X381979D01*
X380979Y92998D01*
Y90999D01*
X381979Y89999D01*
X82199Y133396D02*
X81199Y134396D01*
X79200D01*
X78200Y133396D01*
Y132396D01*
X79200Y131397D01*
X81199D01*
X82199Y130397D01*
Y129397D01*
X81199Y128398D01*
X79200D01*
X78200Y129397D01*
X85198Y132396D02*
X87197D01*
X88197Y131397D01*
Y128398D01*
X85198D01*
X84198Y129397D01*
X85198Y130397D01*
X88197D01*
X90196Y132396D02*
Y129397D01*
X91196Y128398D01*
X92195Y129397D01*
X93195Y128398D01*
X94195Y129397D01*
Y132396D01*
X97194Y133396D02*
Y132396D01*
X96194D01*
X98194D01*
X97194D01*
Y129397D01*
X98194Y128398D01*
X102192D02*
X104192D01*
X105191Y129397D01*
Y131397D01*
X104192Y132396D01*
X102192D01*
X101193Y131397D01*
Y129397D01*
X102192Y128398D01*
X108190D02*
X110190D01*
X111189Y129397D01*
Y131397D01*
X110190Y132396D01*
X108190D01*
X107191Y131397D01*
Y129397D01*
X108190Y128398D01*
X114188Y133396D02*
Y132396D01*
X113189D01*
X115188D01*
X114188D01*
Y129397D01*
X115188Y128398D01*
X118187Y134396D02*
Y128398D01*
Y131397D01*
X119187Y132396D01*
X121186D01*
X122186Y131397D01*
Y128398D01*
X82199Y123798D02*
X81199Y124798D01*
X79200D01*
X78200Y123798D01*
Y119800D01*
X79200Y118800D01*
X81199D01*
X82199Y119800D01*
Y121799D01*
X80199D01*
X87197Y118800D02*
X85198D01*
X84198Y119800D01*
Y121799D01*
X85198Y122799D01*
X87197D01*
X88197Y121799D01*
Y120799D01*
X84198D01*
X90196Y118800D02*
Y122799D01*
X93195D01*
X94195Y121799D01*
Y118800D01*
X99193D02*
X97194D01*
X96194Y119800D01*
Y121799D01*
X97194Y122799D01*
X99193D01*
X100193Y121799D01*
Y120799D01*
X96194D01*
X102192Y122799D02*
Y118800D01*
Y120799D01*
X103192Y121799D01*
X104192Y122799D01*
X105191D01*
X109190D02*
X111189D01*
X112189Y121799D01*
Y118800D01*
X109190D01*
X108190Y119800D01*
X109190Y120799D01*
X112189D01*
X115188Y123798D02*
Y122799D01*
X114188D01*
X116188D01*
X115188D01*
Y119800D01*
X116188Y118800D01*
X120186D02*
X122186D01*
X123185Y119800D01*
Y121799D01*
X122186Y122799D01*
X120186D01*
X119187Y121799D01*
Y119800D01*
X120186Y118800D01*
X125185Y122799D02*
Y118800D01*
Y120799D01*
X126184Y121799D01*
X127184Y122799D01*
X128184D01*
X137999Y213596D02*
X134000D01*
Y210597D01*
X135999D01*
X134000D01*
Y207598D01*
X142997D02*
X140998D01*
X139998Y208597D01*
Y210597D01*
X140998Y211596D01*
X142997D01*
X143997Y210597D01*
Y209597D01*
X139998D01*
X148995Y207598D02*
X146996D01*
X145996Y208597D01*
Y210597D01*
X146996Y211596D01*
X148995D01*
X149995Y210597D01*
Y209597D01*
X145996D01*
X155993Y213596D02*
Y207598D01*
X152994D01*
X151994Y208597D01*
Y210597D01*
X152994Y211596D01*
X155993D01*
X158992Y207598D02*
Y212596D01*
Y210597D01*
X157992D01*
X159992D01*
X158992D01*
Y212596D01*
X159992Y213596D01*
X163990Y207598D02*
X165990D01*
X166989Y208597D01*
Y210597D01*
X165990Y211596D01*
X163990D01*
X162991Y210597D01*
Y208597D01*
X163990Y207598D01*
X168989Y211596D02*
Y207598D01*
Y209597D01*
X169988Y210597D01*
X170988Y211596D01*
X171988D01*
X174987D02*
Y208597D01*
X175986Y207598D01*
X176986Y208597D01*
X177986Y207598D01*
X178985Y208597D01*
Y211596D01*
X181984D02*
X183984D01*
X184984Y210597D01*
Y207598D01*
X181984D01*
X180985Y208597D01*
X181984Y209597D01*
X184984D01*
X186983Y211596D02*
Y207598D01*
Y209597D01*
X187982Y210597D01*
X188982Y211596D01*
X189982D01*
X196980Y213596D02*
Y207598D01*
X193981D01*
X192981Y208597D01*
Y210597D01*
X193981Y211596D01*
X196980D01*
X137999Y202998D02*
X136999Y203998D01*
X135000D01*
X134000Y202998D01*
Y199000D01*
X135000Y198000D01*
X136999D01*
X137999Y199000D01*
X140998Y198000D02*
X142997D01*
X143997Y199000D01*
Y200999D01*
X142997Y201999D01*
X140998D01*
X139998Y200999D01*
Y199000D01*
X140998Y198000D01*
X145996D02*
Y201999D01*
X148995D01*
X149995Y200999D01*
Y198000D01*
X152994Y202998D02*
Y201999D01*
X151994D01*
X153993D01*
X152994D01*
Y199000D01*
X153993Y198000D01*
X156993Y201999D02*
Y198000D01*
Y199999D01*
X157992Y200999D01*
X158992Y201999D01*
X159992D01*
X163990Y198000D02*
X165990D01*
X166989Y199000D01*
Y200999D01*
X165990Y201999D01*
X163990D01*
X162991Y200999D01*
Y199000D01*
X163990Y198000D01*
X168989D02*
X170988D01*
X169988D01*
Y203998D01*
X168989D01*
X173987Y198000D02*
X175986D01*
X174987D01*
Y203998D01*
X173987D01*
X181984Y198000D02*
X179985D01*
X178985Y199000D01*
Y200999D01*
X179985Y201999D01*
X181984D01*
X182984Y200999D01*
Y199999D01*
X178985D01*
X184984Y201999D02*
Y198000D01*
Y199999D01*
X185983Y200999D01*
X186983Y201999D01*
X187982D01*
X688299Y112096D02*
X687299Y113096D01*
X685300D01*
X684300Y112096D01*
Y108097D01*
X685300Y107098D01*
X687299D01*
X688299Y108097D01*
X690298Y111096D02*
Y108097D01*
X691298Y107098D01*
X694297D01*
Y111096D01*
X696296D02*
Y107098D01*
Y109097D01*
X697296Y110097D01*
X698295Y111096D01*
X699295D01*
X702294D02*
Y107098D01*
Y109097D01*
X703294Y110097D01*
X704293Y111096D01*
X705293D01*
X711291Y107098D02*
X709292D01*
X708292Y108097D01*
Y110097D01*
X709292Y111096D01*
X711291D01*
X712291Y110097D01*
Y109097D01*
X708292D01*
X714290Y107098D02*
Y111096D01*
X717289D01*
X718289Y110097D01*
Y107098D01*
X721288Y112096D02*
Y111096D01*
X720288D01*
X722288D01*
X721288D01*
Y108097D01*
X722288Y107098D01*
X688299Y102498D02*
X687299Y103498D01*
X685300D01*
X684300Y102498D01*
Y98500D01*
X685300Y97500D01*
X687299D01*
X688299Y98500D01*
X691298Y97500D02*
X693297D01*
X694297Y98500D01*
Y100499D01*
X693297Y101499D01*
X691298D01*
X690298Y100499D01*
Y98500D01*
X691298Y97500D01*
X696296D02*
Y101499D01*
X699295D01*
X700295Y100499D01*
Y97500D01*
X703294Y102498D02*
Y101499D01*
X702294D01*
X704293D01*
X703294D01*
Y98500D01*
X704293Y97500D01*
X707293Y101499D02*
Y97500D01*
Y99499D01*
X708292Y100499D01*
X709292Y101499D01*
X710292D01*
X714290Y97500D02*
X716290D01*
X717289Y98500D01*
Y100499D01*
X716290Y101499D01*
X714290D01*
X713291Y100499D01*
Y98500D01*
X714290Y97500D01*
X719289D02*
X721288D01*
X720288D01*
Y103498D01*
X719289D01*
X724287Y97500D02*
X726286D01*
X725287D01*
Y103498D01*
X724287D01*
X732284Y97500D02*
X730285D01*
X729285Y98500D01*
Y100499D01*
X730285Y101499D01*
X732284D01*
X733284Y100499D01*
Y99499D01*
X729285D01*
X735284Y101499D02*
Y97500D01*
Y99499D01*
X736283Y100499D01*
X737283Y101499D01*
X738282D01*
X662600Y375098D02*
Y369100D01*
X665599D01*
X666599Y370100D01*
Y371099D01*
X665599Y372099D01*
X662600D01*
X665599D01*
X666599Y373099D01*
Y374098D01*
X665599Y375098D01*
X662600D01*
X668598Y373099D02*
Y370100D01*
X669598Y369100D01*
X672597D01*
Y373099D01*
X678595D02*
X675596D01*
X674596Y372099D01*
Y370100D01*
X675596Y369100D01*
X678595D01*
X680594D02*
Y375098D01*
Y371099D02*
X683593Y373099D01*
X680594Y371099D02*
X683593Y369100D01*
X159000Y385998D02*
Y380000D01*
X161999D01*
X162999Y381000D01*
Y381999D01*
X161999Y382999D01*
X159000D01*
X161999D01*
X162999Y383999D01*
Y384998D01*
X161999Y385998D01*
X159000D01*
X165998Y380000D02*
X167997D01*
X168997Y381000D01*
Y382999D01*
X167997Y383999D01*
X165998D01*
X164998Y382999D01*
Y381000D01*
X165998Y380000D01*
X171996D02*
X173995D01*
X174995Y381000D01*
Y382999D01*
X173995Y383999D01*
X171996D01*
X170996Y382999D01*
Y381000D01*
X171996Y380000D01*
X176994D02*
X179993D01*
X180993Y381000D01*
X179993Y381999D01*
X177994D01*
X176994Y382999D01*
X177994Y383999D01*
X180993D01*
X183992Y384998D02*
Y383999D01*
X182992D01*
X184992D01*
X183992D01*
Y381000D01*
X184992Y380000D01*
X149000Y355998D02*
Y350000D01*
X152999D01*
X155998D02*
X157997D01*
X158997Y351000D01*
Y352999D01*
X157997Y353999D01*
X155998D01*
X154998Y352999D01*
Y351000D01*
X155998Y350000D01*
X160996Y353999D02*
Y351000D01*
X161996Y350000D01*
X162996Y351000D01*
X163995Y350000D01*
X164995Y351000D01*
Y353999D01*
X176991Y354998D02*
X175991Y355998D01*
X173992D01*
X172992Y354998D01*
Y353999D01*
X173992Y352999D01*
X175991D01*
X176991Y351999D01*
Y351000D01*
X175991Y350000D01*
X173992D01*
X172992Y351000D01*
X178990Y350000D02*
X180990D01*
X179990D01*
Y353999D01*
X178990D01*
X187987Y355998D02*
Y350000D01*
X184988D01*
X183989Y351000D01*
Y352999D01*
X184988Y353999D01*
X187987D01*
X192986Y350000D02*
X190986D01*
X189987Y351000D01*
Y352999D01*
X190986Y353999D01*
X192986D01*
X193985Y352999D01*
Y351999D01*
X189987D01*
X201983Y355998D02*
Y350000D01*
X204982D01*
X205982Y351000D01*
Y354998D01*
X204982Y355998D01*
X201983D01*
X207981Y353999D02*
Y350000D01*
Y351999D01*
X208981Y352999D01*
X209980Y353999D01*
X210980D01*
X213979Y350000D02*
X215978D01*
X214979D01*
Y353999D01*
X213979D01*
X218977D02*
X220977Y350000D01*
X222976Y353999D01*
X227974Y350000D02*
X225975D01*
X224975Y351000D01*
Y352999D01*
X225975Y353999D01*
X227974D01*
X228974Y352999D01*
Y351999D01*
X224975D01*
X230974Y353999D02*
Y350000D01*
Y351999D01*
X231973Y352999D01*
X232973Y353999D01*
X233973D01*
X408100Y299897D02*
Y293899D01*
Y296898D01*
X412099D01*
Y299897D01*
Y293899D01*
X414098D02*
X416097D01*
X415098D01*
Y297898D01*
X414098D01*
X421096Y291900D02*
X422095D01*
X423095Y292900D01*
Y297898D01*
X420096D01*
X419096Y296898D01*
Y294899D01*
X420096Y293899D01*
X423095D01*
X425095Y299897D02*
Y293899D01*
Y296898D01*
X426094Y297898D01*
X428093D01*
X429093Y296898D01*
Y293899D01*
X441089Y298898D02*
X440090Y299897D01*
X438090D01*
X437091Y298898D01*
Y297898D01*
X438090Y296898D01*
X440090D01*
X441089Y295899D01*
Y294899D01*
X440090Y293899D01*
X438090D01*
X437091Y294899D01*
X443089Y293899D02*
X445088D01*
X444088D01*
Y297898D01*
X443089D01*
X452086Y299897D02*
Y293899D01*
X449087D01*
X448087Y294899D01*
Y296898D01*
X449087Y297898D01*
X452086D01*
X457084Y293899D02*
X455085D01*
X454085Y294899D01*
Y296898D01*
X455085Y297898D01*
X457084D01*
X458084Y296898D01*
Y295899D01*
X454085D01*
X466081Y299897D02*
Y293899D01*
X469080D01*
X470080Y294899D01*
Y298898D01*
X469080Y299897D01*
X466081D01*
X472079Y297898D02*
Y293899D01*
Y295899D01*
X473079Y296898D01*
X474079Y297898D01*
X475078D01*
X478077Y293899D02*
X480077D01*
X479077D01*
Y297898D01*
X478077D01*
X483076D02*
X485075Y293899D01*
X487074Y297898D01*
X492073Y293899D02*
X490073D01*
X489074Y294899D01*
Y296898D01*
X490073Y297898D01*
X492073D01*
X493073Y296898D01*
Y295899D01*
X489074D01*
X495072Y297898D02*
Y293899D01*
Y295899D01*
X496071Y296898D01*
X497071Y297898D01*
X498071D01*
X518300Y85697D02*
Y79699D01*
X521299D01*
X522299Y80699D01*
Y84698D01*
X521299Y85697D01*
X518300D01*
X524298Y79699D02*
X526297D01*
X525298D01*
Y83698D01*
X524298D01*
X529296Y79699D02*
Y83698D01*
X530296D01*
X531296Y82698D01*
Y79699D01*
Y82698D01*
X532296Y83698D01*
X533295Y82698D01*
Y79699D01*
X535294D02*
Y83698D01*
X536294D01*
X537294Y82698D01*
Y79699D01*
Y82698D01*
X538294Y83698D01*
X539293Y82698D01*
Y79699D01*
X541293D02*
X543292D01*
X542292D01*
Y83698D01*
X541293D01*
X546291Y79699D02*
Y83698D01*
X549290D01*
X550290Y82698D01*
Y79699D01*
X554288Y77700D02*
X555288D01*
X556288Y78700D01*
Y83698D01*
X553289D01*
X552289Y82698D01*
Y80699D01*
X553289Y79699D01*
X556288D01*
X564285D02*
Y85697D01*
X567284D01*
X568284Y84698D01*
Y82698D01*
X567284Y81699D01*
X564285D01*
X571283Y79699D02*
X573282D01*
X574282Y80699D01*
Y82698D01*
X573282Y83698D01*
X571283D01*
X570283Y82698D01*
Y80699D01*
X571283Y79699D01*
X577281Y84698D02*
Y83698D01*
X576281D01*
X578281D01*
X577281D01*
Y80699D01*
X578281Y79699D01*
D13*
X451000Y253000D02*
D03*
Y198000D02*
D03*
X266000Y219000D02*
D03*
X236000Y308000D02*
D03*
X693000Y282000D02*
D03*
X736000Y212000D02*
D03*
X555403Y262055D02*
D03*
X631000Y237000D02*
D03*
X421842Y351043D02*
D03*
X391500Y307300D02*
D03*
X626200Y509700D02*
D03*
Y429700D02*
D03*
X788000Y404900D02*
D03*
Y432000D02*
D03*
Y465900D02*
D03*
X28100Y466200D02*
D03*
Y427900D02*
D03*
Y490400D02*
D03*
Y402600D02*
D03*
X375000Y371000D02*
D03*
X459200Y337600D02*
D03*
X647700Y293000D02*
D03*
X159300Y409700D02*
D03*
Y489700D02*
D03*
X432800Y76100D02*
D03*
X451000Y225500D02*
D03*
X365800Y466900D02*
D03*
Y398002D02*
D03*
X506600Y537700D02*
D03*
X480100D02*
D03*
X306100D02*
D03*
X332100D02*
D03*
X431800Y43600D02*
D03*
X618600Y169800D02*
D03*
X175800Y227600D02*
D03*
X590400Y169600D02*
D03*
X512300Y206400D02*
D03*
X618300Y213400D02*
D03*
X511600Y181400D02*
D03*
X586400Y335400D02*
D03*
X586500Y369500D02*
D03*
X459200Y318300D02*
D03*
X487600Y373400D02*
D03*
X586400Y352900D02*
D03*
X529000Y147100D02*
D03*
X509000Y147126D02*
D03*
X114300Y222800D02*
D03*
X99100Y342000D02*
D03*
X374200Y347100D02*
D03*
X275900Y299400D02*
D03*
X688100Y177100D02*
D03*
X662800Y178200D02*
D03*
X309700Y378000D02*
D03*
X247000Y373000D02*
D03*
X262000Y98000D02*
D03*
X274200Y352100D02*
D03*
X247000Y352000D02*
D03*
X262000Y70000D02*
D03*
X261100Y200400D02*
D03*
X260800Y182800D02*
D03*
X386300Y537700D02*
D03*
X411200D02*
D03*
X788000Y492800D02*
D03*
Y376000D02*
D03*
D14*
X262000Y265000D02*
D03*
X252000D02*
D03*
X242000D02*
D03*
X222000D02*
D03*
X212000D02*
D03*
X202000D02*
D03*
X262000Y235000D02*
D03*
X242000D02*
D03*
X232000D02*
D03*
X222000D02*
D03*
X212000D02*
D03*
X232000Y265000D02*
D03*
X252000Y235000D02*
D03*
X723500Y226800D02*
D03*
X602000Y227500D02*
D03*
X703500Y256800D02*
D03*
X572000Y257500D02*
D03*
X295100Y331800D02*
D03*
X683500Y226800D02*
D03*
X693500D02*
D03*
X703500D02*
D03*
X713500D02*
D03*
X733500D02*
D03*
X673500Y256800D02*
D03*
X683500D02*
D03*
X693500D02*
D03*
X713500D02*
D03*
X723500D02*
D03*
X733500D02*
D03*
X602000Y257500D02*
D03*
X592000D02*
D03*
X582000D02*
D03*
X592000Y227500D02*
D03*
X582000D02*
D03*
X206138Y98365D02*
D03*
X216138D02*
D03*
X226138D02*
D03*
X196138Y128365D02*
D03*
X206138D02*
D03*
X216138D02*
D03*
X226138D02*
D03*
X507000Y346000D02*
D03*
Y336000D02*
D03*
Y326000D02*
D03*
X537000Y356000D02*
D03*
Y346000D02*
D03*
Y336000D02*
D03*
Y326000D02*
D03*
X295100Y361800D02*
D03*
Y351800D02*
D03*
Y341800D02*
D03*
X325100Y361800D02*
D03*
Y351800D02*
D03*
Y341800D02*
D03*
D15*
X202000Y235000D02*
D03*
X673500Y226800D02*
D03*
X572000Y227500D02*
D03*
X196138Y98365D02*
D03*
D16*
X721243Y199600D02*
D03*
X721142Y213000D02*
D03*
X632000Y250157D02*
D03*
X617000D02*
D03*
X246242Y208700D02*
D03*
X246143Y222100D02*
D03*
X709758Y284100D02*
D03*
X709657Y270900D02*
D03*
X236215Y293500D02*
D03*
X236258Y280100D02*
D03*
X492000Y350842D02*
D03*
X477500Y351043D02*
D03*
X506988Y373500D02*
D03*
X582758Y285900D02*
D03*
X582557Y271200D02*
D03*
X356100Y336457D02*
D03*
X341100D02*
D03*
Y356142D02*
D03*
X226458Y222100D02*
D03*
X255943Y280100D02*
D03*
X701458Y213000D02*
D03*
X729343Y270900D02*
D03*
X617000Y269843D02*
D03*
X602243Y271200D02*
D03*
X492000Y331157D02*
D03*
X632000Y269843D02*
D03*
X130988Y268000D02*
D03*
X602443Y285900D02*
D03*
X728158Y144000D02*
D03*
X747843D02*
D03*
X701557Y199600D02*
D03*
X238000Y152157D02*
D03*
Y171843D02*
D03*
X729443Y284100D02*
D03*
X216000Y152157D02*
D03*
Y171843D02*
D03*
X220342Y84500D02*
D03*
X200658D02*
D03*
X220342Y69500D02*
D03*
X200658D02*
D03*
X530300Y314943D02*
D03*
Y295257D02*
D03*
X514300Y314943D02*
D03*
Y295257D02*
D03*
X255900Y293500D02*
D03*
X532657Y205700D02*
D03*
X552343D02*
D03*
X630158Y138000D02*
D03*
X649843D02*
D03*
X173012Y162000D02*
D03*
X142988Y178000D02*
D03*
X530858Y179400D02*
D03*
X550542D02*
D03*
X226557Y208700D02*
D03*
X477500Y331358D02*
D03*
X444585Y423000D02*
D03*
X405215D02*
D03*
X738500Y484470D02*
D03*
Y445100D02*
D03*
X354515Y502600D02*
D03*
X393885D02*
D03*
X356100Y356142D02*
D03*
D17*
X450000Y167654D02*
D03*
X276400Y412753D02*
D03*
X418800Y502153D02*
D03*
X632754Y195400D02*
D03*
X654500Y261854D02*
D03*
X648000Y202654D02*
D03*
X717654Y158000D02*
D03*
X310000Y184346D02*
D03*
X482346Y124000D02*
D03*
X551653Y108000D02*
D03*
X733554Y305600D02*
D03*
X165654Y246000D02*
D03*
X673793Y138600D02*
D03*
X783653Y176000D02*
D03*
X148000Y74347D02*
D03*
X290000Y228346D02*
D03*
X558300Y303547D02*
D03*
X62347Y284000D02*
D03*
Y260000D02*
D03*
X562100Y413054D02*
D03*
X552146Y130300D02*
D03*
X170000Y117654D02*
D03*
X132346Y326000D02*
D03*
X175654Y308000D02*
D03*
X132346Y288000D02*
D03*
X66347Y326000D02*
D03*
X571900Y189753D02*
D03*
X472200Y458947D02*
D03*
X445200Y501754D02*
D03*
D18*
X507000Y356000D02*
D03*
X325100Y331800D02*
D03*
D19*
X780000Y40000D02*
D03*
X40000D02*
D03*
X780000Y530000D02*
D03*
X40000D02*
D03*
D20*
X276400Y369446D02*
D03*
X418800Y458847D02*
D03*
X654500Y218547D02*
D03*
X648000Y159346D02*
D03*
X310000Y227654D02*
D03*
X148000Y117654D02*
D03*
X290000Y271654D02*
D03*
X558300Y346853D02*
D03*
X562100Y369746D02*
D03*
X450000Y124346D02*
D03*
X170000Y74347D02*
D03*
X571900Y146447D02*
D03*
X472200Y502253D02*
D03*
X445200Y458447D02*
D03*
D21*
X85100Y403309D02*
D03*
Y491891D02*
D03*
X696100Y420709D02*
D03*
Y509291D02*
D03*
X318200Y419609D02*
D03*
Y508191D02*
D03*
D22*
X236300Y523600D02*
D03*
X279400Y445900D02*
D03*
Y455900D02*
D03*
X558885Y524700D02*
D03*
X565700Y445800D02*
D03*
Y455800D02*
D03*
D23*
X216615Y523600D02*
D03*
X539200Y524700D02*
D03*
D24*
X279400Y435900D02*
D03*
X565700Y435800D02*
D03*
D25*
X98636Y238800D02*
D03*
X155764Y138000D02*
D03*
D26*
X88400Y238800D02*
D03*
X78164D02*
D03*
X201900Y298136D02*
D03*
Y308372D02*
D03*
X166000Y138000D02*
D03*
X176236D02*
D03*
D27*
X201900Y287900D02*
D03*
D28*
X589446Y195400D02*
D03*
X674346Y158000D02*
D03*
X525654Y124000D02*
D03*
X508347Y108000D02*
D03*
X690246Y305600D02*
D03*
X122346Y246000D02*
D03*
X717100Y138600D02*
D03*
X740346Y176000D02*
D03*
X105654Y284000D02*
D03*
Y260000D02*
D03*
X595454Y130300D02*
D03*
X175654Y326000D02*
D03*
X132346Y308000D02*
D03*
X175654Y288000D02*
D03*
X109653Y326000D02*
D03*
D29*
X489000Y147100D02*
D03*
D30*
X161012Y268000D02*
D03*
X537012Y373500D02*
D03*
X142988Y162000D02*
D03*
X173012Y178000D02*
D03*
D31*
X698300Y393100D02*
D03*
X638100D02*
D03*
M02*
