M48
;Layer_Color=9474304
;FILE_FORMAT=4:4
METRIC,LZ
;TYPE=PLATED
T1F00S00C0.7000
T2F00S00C0.8500
T3F00S00C0.9000
T4F00S00C0.9500
T5F00S00C1.0000
T6F00S00C1.2000
T7F00S00C1.2700
T8F00S00C1.5000
T9F00S00C2.0000
T10F00S00C3.5000
%
T01
X0050967Y0017653
Y0021463
X0055967
Y0017653
X0054864Y0038648
X0060452
X016006Y0035052
X016506
X0184952Y0036576
X0189952
X01831956Y00506984
X01831702Y0054102
X01781702
X01781956Y00506984
X0180253Y00688086
X01802784Y00721614
X01852784
X0185253Y00688086
X0160528Y006854
Y006354
X0156718
Y006854
X01529696Y00688848
X01530204Y00726186
X01480204
X01479696Y00688848
X01346962Y00749954
X01306322
X0135295Y00522478
X0140295
X01398378Y00455676
X01348378
X0060452Y0043648
X0054864
X00575456Y00530098
X00575202Y00564134
X00625202
X00625456Y00530098
X00650094Y00711454
X00649986Y0074549
X00599986
X00600094Y00711454
X0040897Y0068072
X0043945Y0045212
Y0041148
X0036319
Y0045212
X0033271Y0068072
X00866394Y00854602
X00904494
Y00904602
X00866394
X01029246Y0107442
X01129246
X0121285Y00891648
X0124968Y0089114
Y0084114
X0121285Y00841648
X01306322Y00799954
X01346962
X0136401Y0094869
X0128775
X0187579Y01130554
Y01230554
X01000468Y01276604
X00900468
T02
X0037592Y0018884
Y0029884
X004318
Y0018884
X01143Y0031584
X0122516Y0031496
X012912Y0027432
X0133516Y0031496
X01402452Y00330962
X014012Y0027432
X01452626Y00371974
X01512452Y00330962
X01711434Y00352044
X01821434
X0199048Y0044704
X0188048
X0182284Y0040132
X0171284
X0164592Y0040474
Y0051474
X0166243Y00555108
Y00665108
X01753226Y00776224
X01863226
X01607194Y00496316
X01497194
X01452626Y00481974
X01418082Y00771008
X01143Y0042584
X007874Y0046824
Y0057824
X007366Y0058
Y0069
X0044616Y0073152
Y0078232
X0042076Y0062484
X0031076
X0026836Y006604
Y0072136
X0033616Y0073152
Y0078232
X0015836Y0072136
Y006604
X0016852Y0082804
X0027852
X0033616
X0044616
X00702056Y00938394
Y01048394
X01063752Y0116547
X01130808Y01164454
X01199388Y01165724
X01427734Y01049156
Y00939156
X01418082Y00881008
X01199388Y01275724
X01130808Y01274454
X01063752Y0127547
T03
X0049819Y00249848
X0052359
X0054899
X0057439
Y00326048
X0054899
X0052359
X0049819
X0171069Y00576072
X0173609
X0176149
X0178689
X0181229
X0183769
X0186309
Y00652272
X0183769
X0181229
X0178689
X0176149
X0173609
X0171069
X0152908Y0065405
X0150368
X0147828
X0145288
Y0057785
X0147828
X0150368
X0152908
X0066548Y005969
X0064008
X0061468
X0058928
X0056388
X0053848
X0051308
Y006731
X0053848
X0056388
X0058928
X0061468
X0064008
X0066548
X00749554Y00842772
Y00868172
Y00893572
Y00918972
X00825754
Y00893572
Y00868172
Y00842772
X0128778Y0085344
Y0087884
Y0090424
Y0082804
X0136398
Y0085344
Y0087884
Y0090424
T04
X0039564Y0035052
X0042164
X0044764
X00512826Y00731266
Y00757266
Y00783266
X00250536Y00606552
X00224536
X00198536
T05
X00709676Y01107186
Y01132586
Y01157986
X01436878Y01157732
Y01132332
Y01106932
X01419568Y01332738
X01369568
X00600202Y01329944
X00550202
T06
X00216154Y01024404
X00808228Y01065806
X01768094Y010686
Y012936
X00808228Y01290806
X00216154Y01249404
T07
X01620774Y00998474
X01773682
T08
X00929132Y01010926
Y01185926
T09
X0066548Y001778
Y0024892
X01099312Y00193294
X01096772Y00110744
X0124206Y00373634
X0129286Y003737
X0134366Y00373634
X01683512Y00452628
X01747774Y00449834
X0186944Y0053848
X0176022Y0071628
X01645158Y0074422
X0160274Y0060198
X01570482Y00542036
X01571244Y00431292
X01499616Y00430784
X01299464Y00460756
X01301242Y00524256
X01410724Y00665619
X0114554Y0064262
Y0057277
Y0050292
X0099441Y00780542
X00700786Y00760476
X0059944Y0078232
X0067564Y0055626
X00663194Y00509016
X00662432Y00464312
X00446532Y00578104
X00290322Y00565912
X00251714Y0086868
X00071374Y01022604
Y01086866
Y01184148
X00404622Y01040638
X0062738Y0094742
Y0089408
X00696468Y00894334
X00786638Y0096012
X009525Y0094234
X00950468Y00881634
X0107148Y00891648
X01166368Y00857504
Y00808482
X01238504Y00948436
X0148971Y0093853
X01489456Y00896366
Y00851916
X01590548Y01091438
X0200152Y0109728
Y01028446
Y0095504
Y01183386
Y01251712
X01590548Y01294638
X01286764Y01365758
X01219454
X01044448
X00981202
X00843534
X00777494
X00404622Y01243838
X00071374Y01245616
T10
X001016Y001016
X019812
Y013462
X001016
M30
